<!-- Generated by IcoMoon.io -->
<svg version="1.1" xmlns="http://www.w3.org/2000/svg" width="32" height="32" viewBox="0 0 32 32">
<title>Client3</title>
<path fill="#afb1b8" d="M13.43 19.914c0.003 0 0.006 0.001 0.008 0.002s0.005 0.003 0.007 0.005l0.039 0.041c-0.030 0.033-0.067 0.059-0.109 0.077-0.049 0.020-0.101 0.029-0.154 0.028-0.050 0.001-0.099-0.008-0.145-0.026-0.042-0.017-0.079-0.041-0.109-0.073-0.031-0.033-0.055-0.071-0.071-0.113-0.017-0.046-0.025-0.095-0.025-0.144-0.001-0.049 0.008-0.099 0.027-0.145 0.017-0.042 0.042-0.080 0.075-0.113s0.073-0.057 0.116-0.073c0.048-0.018 0.098-0.026 0.15-0.026 0.047-0.001 0.095 0.007 0.139 0.024 0.038 0.016 0.074 0.038 0.104 0.065l-0.032 0.043c-0.002 0.003-0.005 0.006-0.008 0.008s-0.008 0.004-0.013 0.003c-0.005-0-0.010-0.002-0.014-0.005l-0.017-0.012-0.024-0.015c-0.010-0.005-0.021-0.010-0.032-0.014-0.014-0.005-0.029-0.009-0.044-0.012-0.019-0.003-0.038-0.005-0.058-0.005-0.037-0-0.073 0.006-0.107 0.019-0.032 0.012-0.061 0.031-0.084 0.054-0.024 0.025-0.043 0.055-0.055 0.087-0.014 0.037-0.020 0.075-0.020 0.114-0.001 0.040 0.006 0.079 0.020 0.116 0.012 0.032 0.030 0.061 0.054 0.086 0.022 0.023 0.050 0.042 0.080 0.053s0.066 0.019 0.1 0.018c0.020 0 0.040-0.001 0.059-0.004 0.032-0.004 0.063-0.014 0.090-0.031 0.014-0.009 0.026-0.018 0.038-0.029 0.005-0.005 0.012-0.007 0.018-0.007z"></path>
<path fill="#afb1b8" d="M14.548 19.71c0.001 0.049-0.008 0.098-0.026 0.143-0.016 0.042-0.041 0.080-0.073 0.111s-0.071 0.057-0.114 0.073c-0.095 0.034-0.2 0.034-0.294 0-0.043-0.017-0.082-0.042-0.114-0.073s-0.057-0.071-0.074-0.113c-0.035-0.093-0.035-0.195 0-0.287 0.017-0.042 0.041-0.080 0.074-0.113 0.032-0.031 0.071-0.055 0.114-0.071 0.095-0.035 0.2-0.035 0.294 0 0.043 0.017 0.082 0.042 0.114 0.073s0.057 0.070 0.073 0.111c0.018 0.046 0.027 0.095 0.026 0.144zM14.447 19.71c0.001-0.039-0.005-0.078-0.018-0.115-0.011-0.032-0.028-0.061-0.052-0.086-0.023-0.024-0.051-0.042-0.082-0.054-0.069-0.025-0.145-0.025-0.214 0-0.031 0.012-0.059 0.031-0.082 0.054-0.024 0.025-0.041 0.054-0.052 0.086-0.025 0.075-0.025 0.156 0 0.231 0.011 0.032 0.029 0.061 0.052 0.086 0.023 0.024 0.051 0.042 0.082 0.054 0.069 0.025 0.145 0.025 0.214 0 0.031-0.012 0.059-0.030 0.082-0.054 0.023-0.025 0.041-0.054 0.052-0.086 0.013-0.037 0.019-0.076 0.018-0.115z"></path>
<path fill="#afb1b8" d="M15.311 19.831l0.010 0.026c0.004-0.009 0.007-0.018 0.011-0.026s0.008-0.017 0.013-0.025l0.247-0.428c0.005-0.007 0.009-0.012 0.014-0.013 0.007-0.002 0.013-0.003 0.020-0.002h0.073v0.697h-0.087v-0.512c0-0.006 0-0.014 0-0.022s-0-0.016 0-0.024l-0.249 0.435c-0.003 0.006-0.008 0.012-0.015 0.016s-0.014 0.006-0.021 0.006h-0.014c-0.008 0-0.015-0.002-0.021-0.006s-0.011-0.009-0.014-0.016l-0.256-0.437c0 0.008 0 0.017 0 0.025s0 0.016 0 0.022v0.512h-0.084v-0.696h0.073c0.007-0 0.014 0 0.020 0.002s0.011 0.008 0.014 0.013l0.253 0.429c0.005 0.008 0.009 0.016 0.013 0.025z"></path>
<path fill="#afb1b8" d="M16.242 19.797v0.261h-0.097v-0.696h0.216c0.041-0.001 0.081 0.004 0.121 0.015 0.031 0.008 0.060 0.023 0.085 0.043 0.021 0.019 0.038 0.042 0.048 0.068 0.011 0.028 0.017 0.059 0.016 0.089 0 0.031-0.006 0.061-0.018 0.089-0.012 0.027-0.030 0.051-0.052 0.070-0.025 0.021-0.054 0.037-0.086 0.046-0.038 0.011-0.077 0.017-0.117 0.016l-0.117-0.002zM16.242 19.722h0.117c0.025 0 0.051-0.003 0.075-0.011 0.020-0.006 0.038-0.017 0.054-0.030 0.015-0.013 0.026-0.029 0.033-0.046 0.008-0.019 0.012-0.038 0.012-0.059 0.001-0.019-0.002-0.039-0.010-0.057s-0.019-0.034-0.034-0.048c-0.037-0.028-0.083-0.041-0.13-0.037h-0.117v0.287z"></path>
<path fill="#afb1b8" d="M17.544 20.059h-0.076c-0.008 0-0.015-0.002-0.021-0.006s-0.010-0.010-0.013-0.016l-0.066-0.168h-0.331l-0.068 0.168c-0.003 0.006-0.007 0.012-0.012 0.016s-0.014 0.007-0.022 0.007h-0.076l0.291-0.697h0.101l0.294 0.697zM17.064 19.8h0.273l-0.115-0.284c-0.009-0.021-0.016-0.043-0.022-0.066l-0.011 0.036c-0.003 0.011-0.007 0.021-0.011 0.030l-0.114 0.283z"></path>
<path fill="#afb1b8" d="M17.962 19.365c0.006 0.003 0.011 0.007 0.015 0.012l0.424 0.525c0-0.008 0-0.017 0-0.024s0-0.016 0-0.023v-0.494h0.087v0.697h-0.048c-0.007 0-0.014-0.001-0.020-0.004s-0.011-0.008-0.015-0.013l-0.423-0.525c0 0.008 0 0.016 0 0.024s0 0.015 0 0.021v0.497h-0.087v-0.697h0.051c0.006-0 0.012 0.001 0.017 0.003z"></path>
<path fill="#afb1b8" d="M19.201 19.781v0.277h-0.097v-0.277l-0.268-0.42h0.087c0.008-0 0.015 0.002 0.021 0.006s0.010 0.010 0.013 0.016l0.167 0.271c0.007 0.012 0.013 0.022 0.017 0.032s0.009 0.020 0.012 0.030l0.013-0.030c0.005-0.011 0.010-0.022 0.017-0.032l0.165-0.273c0.003-0.005 0.008-0.010 0.013-0.015s0.013-0.007 0.021-0.007h0.088l-0.268 0.422z"></path>
<path fill="#afb1b8" d="M15.263 18.192c0.042 0.005 0.085 0.009 0.128 0.013 0.653-0.278 1.206-0.734 1.589-1.31s0.579-1.247 0.564-1.929l-0.72-0.686c0.146 0.726 0.078 1.476-0.198 2.167s-0.748 1.295-1.363 1.745z"></path>
<path fill="#afb1b8" d="M15.006 18.16l0.019 0.004c0.658-0.448 1.159-1.074 1.44-1.797s0.327-1.509 0.133-2.257l-1.025-0.977c0.415 0.803 0.582 1.702 0.481 2.592s-0.464 1.734-1.048 2.435z"></path>
<path fill="#afb1b8" d="M18.484 15.771c-0.174 0.749-0.597 1.425-1.207 1.926-0.178 0.147-0.37 0.279-0.573 0.392 0.496-0.139 0.952-0.384 1.333-0.718s0.676-0.746 0.863-1.205l-0.416-0.396z"></path>
<path fill="#afb1b8" d="M18.321 15.661l-0.592-0.564c-0.011 0.643-0.203 1.272-0.556 1.82s-0.853 0.997-1.449 1.299h0.003c0.133-0 0.266-0.008 0.398-0.023 0.557-0.217 1.049-0.561 1.433-1.003s0.646-0.967 0.764-1.53z"></path>
<path fill="#afb1b8" d="M15.092 12.721l-0.706-0.674c-0.632 0.232-1.175 0.641-1.558 1.173s-0.59 1.161-0.592 1.806v0c0.002 0.713 0.254 1.404 0.716 1.965s1.106 0.959 1.832 1.132c0.648-0.752 1.027-1.681 1.083-2.653s-0.215-1.935-0.773-2.749z"></path>
<path fill="#afb1b8" d="M19.953 15.557c-0.003-0.846-0.356-1.656-0.984-2.254s-1.478-0.935-2.366-0.937c-0.41-0-0.817 0.072-1.199 0.213l4.325 4.121c0.148-0.364 0.224-0.752 0.224-1.142z"></path>
</svg>
