<!-- Generated by IcoMoon.io -->
<svg version="1.1" xmlns="http://www.w3.org/2000/svg" width="32" height="32" viewBox="0 0 32 32">
<title>Client4</title>
<path fill="#2196f3" d="M10.805 14.462h-0.001c-0.426 0-0.771 0.336-0.771 0.751v0.001c0 0.415 0.345 0.751 0.771 0.751h0.001c0.426 0 0.771-0.336 0.771-0.751v-0.001c0-0.415-0.345-0.751-0.771-0.751z"></path>
<path fill="#2196f3" d="M16.496 14.222c-0.001-0.576-0.237-1.129-0.655-1.536s-0.985-0.637-1.576-0.639v0c-0.592 0.001-1.159 0.23-1.577 0.638s-0.654 0.96-0.655 1.537v3.178c0 0 4.463-0.484 4.464-3.178v-0.001z"></path>
<path fill="#2196f3" d="M8.471 18.444c0.001 0.401 0.165 0.785 0.456 1.069s0.685 0.444 1.097 0.445c0.411-0.001 0.806-0.161 1.097-0.445s0.455-0.668 0.456-1.069v-2.212c0 0-3.106 0.337-3.106 2.211zM10.023 18.84c-0.080 0-0.159-0.023-0.226-0.067s-0.119-0.105-0.15-0.178c-0.031-0.072-0.039-0.152-0.023-0.229s0.054-0.147 0.111-0.203c0.057-0.055 0.129-0.093 0.208-0.108s0.161-0.007 0.235 0.023c0.074 0.030 0.138 0.081 0.182 0.146s0.069 0.142 0.069 0.22c0 0.052-0.010 0.104-0.030 0.152s-0.050 0.092-0.088 0.129c-0.038 0.037-0.083 0.066-0.132 0.086s-0.102 0.030-0.156 0.030v-0.002z"></path>
<path fill="#2196f3" d="M13.193 18.594h-0.318v0.328h-0.165v-0.803h0.523v0.134h-0.357v0.207h0.318v0.133zM13.988 18.539c0 0.079-0.014 0.148-0.042 0.208s-0.068 0.105-0.12 0.138c-0.052 0.032-0.111 0.049-0.179 0.049s-0.126-0.016-0.178-0.048-0.093-0.078-0.121-0.137c-0.029-0.060-0.043-0.128-0.044-0.205v-0.040c0-0.079 0.014-0.149 0.042-0.208s0.069-0.106 0.121-0.138c0.052-0.032 0.112-0.049 0.179-0.049s0.126 0.016 0.178 0.049c0.052 0.032 0.092 0.078 0.121 0.138s0.043 0.129 0.043 0.208v0.036zM13.821 18.503c0-0.084-0.015-0.148-0.045-0.192s-0.073-0.066-0.129-0.066c-0.056 0-0.098 0.022-0.129 0.065s-0.045 0.106-0.046 0.19v0.039c0 0.082 0.015 0.146 0.045 0.191s0.074 0.068 0.13 0.068c0.056 0 0.098-0.022 0.128-0.065s0.045-0.107 0.045-0.191v-0.039zM14.525 18.712c0-0.031-0.011-0.055-0.033-0.072s-0.062-0.035-0.119-0.053c-0.057-0.019-0.103-0.037-0.136-0.055-0.091-0.049-0.137-0.116-0.137-0.199 0-0.043 0.012-0.082 0.036-0.116s0.060-0.061 0.105-0.080c0.046-0.019 0.097-0.029 0.154-0.029s0.108 0.011 0.153 0.031c0.045 0.021 0.080 0.050 0.104 0.088s0.037 0.081 0.037 0.129h-0.165c0-0.037-0.012-0.065-0.035-0.085s-0.056-0.031-0.098-0.031c-0.040 0-0.072 0.009-0.094 0.026s-0.034 0.039-0.034 0.067c0 0.026 0.013 0.048 0.039 0.066s0.065 0.034 0.116 0.050c0.094 0.028 0.163 0.063 0.206 0.105s0.065 0.094 0.065 0.157c0 0.070-0.026 0.124-0.079 0.164s-0.123 0.059-0.212 0.059c-0.062 0-0.118-0.011-0.169-0.034s-0.090-0.054-0.116-0.093c-0.026-0.039-0.040-0.085-0.040-0.137h0.166c0 0.089 0.053 0.133 0.159 0.133 0.039 0 0.070-0.008 0.092-0.024s0.033-0.039 0.033-0.067zM15.408 18.253h-0.246v0.669h-0.165v-0.669h-0.243v-0.134h0.654v0.134zM15.986 18.574h-0.318v0.215h0.373v0.133h-0.538v-0.803h0.537v0.134h-0.372v0.191h0.318v0.13zM16.435 18.628h-0.132v0.294h-0.165v-0.803h0.298c0.095 0 0.168 0.021 0.219 0.063s0.077 0.102 0.077 0.179c0 0.055-0.012 0.101-0.036 0.137s-0.059 0.065-0.108 0.087l0.174 0.328v0.008h-0.178l-0.151-0.294zM16.304 18.494h0.133c0.042 0 0.074-0.011 0.096-0.031s0.034-0.051 0.034-0.088c0-0.038-0.011-0.068-0.033-0.089s-0.054-0.033-0.099-0.033h-0.133v0.241zM17.306 18.639v0.283h-0.165v-0.803h0.313c0.060 0 0.113 0.011 0.159 0.033s0.081 0.053 0.106 0.094c0.025 0.040 0.037 0.087 0.037 0.138 0 0.079-0.027 0.141-0.081 0.186s-0.128 0.068-0.223 0.068h-0.145zM17.306 18.505h0.148c0.044 0 0.077-0.010 0.1-0.031s0.035-0.050 0.035-0.088c0-0.039-0.012-0.071-0.035-0.095s-0.055-0.037-0.096-0.038h-0.152v0.252zM18.353 18.574h-0.318v0.215h0.373v0.133h-0.538v-0.803h0.537v0.134h-0.372v0.191h0.318v0.13zM19.12 18.253h-0.246v0.669h-0.166v-0.669h-0.243v-0.134h0.654v0.134zM19.698 18.574h-0.318v0.215h0.373v0.133h-0.538v-0.803h0.537v0.134h-0.372v0.191h0.318v0.13zM20.148 18.628h-0.132v0.294h-0.165v-0.803h0.298c0.095 0 0.168 0.021 0.219 0.063s0.077 0.102 0.077 0.179c0 0.055-0.012 0.101-0.036 0.137s-0.059 0.065-0.107 0.087l0.174 0.328v0.008h-0.178l-0.151-0.294zM20.016 18.494h0.133c0.042 0 0.074-0.011 0.097-0.031s0.034-0.051 0.034-0.088c0-0.038-0.011-0.068-0.032-0.089s-0.054-0.033-0.099-0.033h-0.133v0.241zM20.988 18.712c0-0.031-0.011-0.055-0.033-0.072s-0.062-0.035-0.119-0.053c-0.057-0.019-0.103-0.037-0.136-0.055-0.091-0.049-0.137-0.116-0.137-0.199 0-0.043 0.012-0.082 0.037-0.116s0.060-0.061 0.105-0.080c0.046-0.019 0.098-0.029 0.155-0.029s0.108 0.011 0.153 0.031c0.045 0.021 0.080 0.050 0.104 0.088s0.037 0.081 0.037 0.129h-0.165c0-0.037-0.011-0.065-0.035-0.085s-0.056-0.031-0.098-0.031c-0.040 0-0.072 0.009-0.094 0.026s-0.034 0.039-0.034 0.067c0 0.026 0.013 0.048 0.039 0.066s0.065 0.034 0.117 0.050c0.094 0.028 0.163 0.063 0.206 0.105s0.065 0.094 0.065 0.157c0 0.070-0.026 0.124-0.079 0.164s-0.123 0.059-0.212 0.059c-0.062 0-0.118-0.011-0.169-0.034s-0.090-0.054-0.116-0.093c-0.027-0.039-0.040-0.085-0.040-0.137h0.166c0 0.089 0.053 0.133 0.159 0.133 0.039 0 0.070-0.008 0.092-0.024s0.033-0.039 0.033-0.067z"></path>
</svg>
