<!-- Generated by IcoMoon.io -->
<svg version="1.1" xmlns="http://www.w3.org/2000/svg" width="32" height="32" viewBox="0 0 32 32">
<title>Client6</title>
<path fill="#afb1b8" d="M16.139 15.69c-0.079-0.115-0.116-0.251-0.107-0.387v-0.561c0-0.172 0.036-0.303 0.107-0.392s0.193-0.134 0.367-0.134c0.163 0 0.279 0.038 0.347 0.114 0.075 0.097 0.111 0.216 0.103 0.336v0.132h-0.291v-0.134c0.001-0.044-0.002-0.088-0.008-0.131-0.004-0.030-0.019-0.057-0.042-0.078-0.030-0.022-0.068-0.033-0.106-0.030-0.040-0.003-0.079 0.009-0.111 0.032-0.025 0.023-0.042 0.053-0.048 0.086-0.008 0.046-0.012 0.092-0.011 0.139v0.681c-0.005 0.066 0.008 0.132 0.037 0.191 0.015 0.020 0.035 0.036 0.058 0.046s0.050 0.014 0.075 0.011c0.037 0.003 0.074-0.008 0.103-0.031 0.024-0.022 0.039-0.051 0.043-0.083 0.007-0.045 0.010-0.091 0.009-0.136v-0.138h0.291v0.126c0.008 0.125-0.027 0.249-0.101 0.353-0.067 0.083-0.181 0.125-0.349 0.125s-0.294-0.045-0.366-0.137z"></path>
<path fill="#afb1b8" d="M17.353 15.696c-0.074-0.087-0.11-0.215-0.11-0.383v-0.591c0-0.167 0.037-0.293 0.11-0.379s0.197-0.128 0.369-0.128c0.171 0 0.294 0.043 0.367 0.128s0.111 0.212 0.111 0.379v0.591c0 0.167-0.037 0.295-0.112 0.383s-0.197 0.132-0.366 0.132c-0.169 0-0.295-0.045-0.369-0.131zM17.858 15.554c0.026-0.055 0.038-0.115 0.035-0.175v-0.723c0.003-0.059-0.008-0.118-0.034-0.171-0.015-0.021-0.035-0.037-0.059-0.047s-0.051-0.014-0.077-0.010c-0.026-0.003-0.053 0-0.077 0.010s-0.045 0.026-0.060 0.047c-0.027 0.053-0.039 0.112-0.035 0.171v0.726c-0.004 0.060 0.008 0.12 0.035 0.175 0.017 0.018 0.038 0.033 0.061 0.043s0.049 0.015 0.075 0.015c0.026 0 0.051-0.005 0.075-0.015s0.044-0.025 0.061-0.043v-0.003z"></path>
<path fill="#afb1b8" d="M18.551 14.233h0.314l0.236 1.090 0.241-1.090h0.305l0.031 1.573h-0.226l-0.024-1.093-0.233 1.093h-0.181l-0.241-1.097-0.022 1.097h-0.228l0.028-1.573z"></path>
<path fill="#afb1b8" d="M20.029 14.233h0.489c0.281 0 0.422 0.149 0.422 0.447 0 0.285-0.148 0.428-0.445 0.427h-0.166v0.699h-0.302l0.002-1.573zM20.447 14.905c0.030 0.004 0.060 0.001 0.089-0.008s0.055-0.023 0.077-0.042c0.035-0.053 0.050-0.116 0.043-0.178 0.002-0.048-0.003-0.096-0.015-0.143-0.004-0.016-0.012-0.030-0.022-0.043s-0.023-0.024-0.038-0.032c-0.042-0.019-0.088-0.028-0.134-0.025h-0.117v0.47h0.117z"></path>
<path fill="#afb1b8" d="M21.375 14.233h0.324l0.332 1.573h-0.281l-0.066-0.363h-0.289l-0.068 0.363h-0.285l0.332-1.573zM21.652 15.261l-0.113-0.66-0.113 0.66h0.226z"></path>
<path fill="#afb1b8" d="M22.3 14.233h0.211l0.404 0.897v-0.897h0.25v1.573h-0.201l-0.407-0.937v0.937h-0.259l0.001-1.573z"></path>
<path fill="#afb1b8" d="M23.752 15.206l-0.336-0.971h0.283l0.205 0.624 0.192-0.624h0.277l-0.332 0.971v0.6h-0.29v-0.6z"></path>
<path fill="#afb1b8" d="M16.605 16.493v0.082h-0.246v0.639h-0.103v-0.639h-0.247v-0.082h0.597z"></path>
<path fill="#afb1b8" d="M17.377 17.214h-0.080c-0.008 0-0.016-0.002-0.022-0.007s-0.011-0.010-0.013-0.017l-0.071-0.171h-0.341l-0.071 0.171c-0.002 0.007-0.006 0.014-0.011 0.019-0.006 0.005-0.014 0.007-0.022 0.007h-0.080l0.302-0.721h0.105l0.305 0.718zM16.877 16.947h0.285l-0.121-0.294c-0.009-0.022-0.016-0.045-0.022-0.068-0.004 0.014-0.008 0.027-0.011 0.038l-0.011 0.030-0.119 0.293z"></path>
<path fill="#afb1b8" d="M17.897 17.143c0.019 0.001 0.038 0.001 0.057 0 0.016-0.002 0.032-0.004 0.048-0.009 0.015-0.003 0.029-0.008 0.043-0.013s0.027-0.011 0.040-0.018v-0.162h-0.121c-0.003 0-0.006-0-0.009-0.001s-0.005-0.003-0.008-0.004c-0.002-0.002-0.004-0.004-0.005-0.006s-0.002-0.005-0.001-0.007v-0.055h0.234v0.276c-0.019 0.013-0.039 0.024-0.060 0.034s-0.044 0.018-0.067 0.025c-0.025 0.007-0.050 0.012-0.075 0.015-0.029 0.003-0.059 0.005-0.088 0.005-0.052 0-0.104-0.009-0.152-0.027-0.045-0.017-0.086-0.043-0.121-0.075s-0.060-0.072-0.078-0.114c-0.019-0.048-0.028-0.099-0.028-0.15-0.001-0.051 0.009-0.102 0.027-0.151 0.017-0.043 0.044-0.082 0.078-0.114s0.075-0.058 0.121-0.075c0.052-0.018 0.107-0.027 0.162-0.027 0.028-0 0.056 0.002 0.084 0.006 0.024 0.004 0.049 0.010 0.072 0.018 0.021 0.008 0.041 0.017 0.060 0.029s0.036 0.024 0.052 0.038l-0.029 0.045c-0.002 0.004-0.006 0.007-0.010 0.010s-0.009 0.004-0.014 0.004c-0.007-0-0.013-0.002-0.019-0.006-0.009-0.005-0.019-0.010-0.030-0.017-0.013-0.008-0.026-0.014-0.040-0.019-0.018-0.007-0.037-0.012-0.055-0.016-0.025-0.004-0.051-0.006-0.077-0.006-0.040-0-0.079 0.006-0.116 0.020-0.034 0.013-0.064 0.032-0.089 0.057-0.025 0.026-0.044 0.056-0.056 0.090-0.027 0.078-0.027 0.162 0 0.24 0.013 0.034 0.034 0.065 0.060 0.091 0.025 0.025 0.055 0.044 0.088 0.057 0.038 0.012 0.079 0.017 0.119 0.014z"></path>
<path fill="#afb1b8" d="M18.858 17.132h0.329v0.082h-0.43v-0.721h0.103l-0.002 0.639z"></path>
<path fill="#afb1b8" d="M19.53 17.214h-0.103v-0.721h0.103v0.721z"></path>
<path fill="#afb1b8" d="M19.914 16.496c0.006 0.003 0.011 0.008 0.016 0.013l0.441 0.544c-0.001-0.009-0.001-0.017 0-0.026s0-0.016 0-0.023v-0.514h0.090v0.724h-0.052c-0.008 0.001-0.015-0.001-0.022-0.004s-0.012-0.008-0.016-0.014l-0.44-0.543c0 0.009 0 0.017 0 0.025s0 0.015 0 0.022v0.514h-0.086v-0.721h0.054c0.006 0 0.012 0.001 0.017 0.003z"></path>
<path fill="#afb1b8" d="M21.22 16.493v0.079h-0.366v0.238h0.296v0.077h-0.296v0.246h0.366v0.079h-0.472v-0.72h0.472z"></path>
<path fill="#afb1b8" d="M10.41 12.038l4.581 1.231v4.315l-4.581-1.231v-4.315zM10.116 11.671v4.893l5.168 1.389v-4.892l-5.168-1.39z"></path>
<path fill="#afb1b8" d="M12.886 20.224l-5.168-1.391v-4.892l5.168 1.39v4.893z"></path>
<path fill="#afb1b8" d="M10.202 11.983l4.521 1.216-1.923 1.821-4.522-1.216 1.923-1.82zM10.116 11.671l-2.399 2.271 5.168 1.39 2.398-2.271-5.168-1.39z"></path>
<path fill="#afb1b8" d="M13.177 19.949l2.107-1.995-2.107-0.567v2.563z"></path>
</svg>
