<!-- Generated by IcoMoon.io -->
<svg version="1.1" xmlns="http://www.w3.org/2000/svg" width="32" height="32" viewBox="0 0 32 32">
<title>Client2</title>
<path fill="#afb1b8" d="M15.431 11.658h0.026c0.048 0 0.099 0.005 0.15 0.009 0.225 0.016 0.447 0.049 0.667 0.101v-0.539c-0.226-0.057-0.456-0.093-0.688-0.11-0.088-0.007-0.182-0.011-0.278-0.013h-0.081c-0.466 0.002-0.93 0.062-1.381 0.178-0.514 0.128-1.007 0.329-1.465 0.596v5.345c0.441-0.24 0.91-0.422 1.397-0.544 0.384-0.098 0.777-0.158 1.172-0.18h0.016c0.066-0.003 0.132-0.005 0.2-0.006v-0.548c-0.514 0.007-1.026 0.075-1.524 0.202-0.184 0.048-0.362 0.1-0.53 0.157l-0.19 0.065v-4.168l0.081-0.039c0.621-0.295 1.293-0.466 1.979-0.505 0.006-0 0.011-0 0.017 0 0.076-0.004 0.152-0.006 0.227-0.006h0.086c0.040 0.001 0.079 0.002 0.119 0.004z"></path>
<path fill="#afb1b8" d="M16.774 12.223c-0.125 0-0.249-0.004-0.369-0.013-0.143-0.011-0.29-0.028-0.429-0.051-0.085-0.014-0.168-0.032-0.249-0.050v5.284c0.343 0.085 0.695 0.126 1.048 0.123 0.466-0.002 0.93-0.062 1.381-0.178 0.514-0.128 1.008-0.329 1.466-0.596v-5.25c-0.441 0.239-0.91 0.422-1.396 0.545-0.474 0.122-0.962 0.184-1.452 0.186zM18.887 12.314l0.191-0.064v4.169l-0.081 0.039c-0.312 0.149-0.639 0.266-0.974 0.35-0.407 0.105-0.826 0.16-1.246 0.161-0.126 0-0.25-0.005-0.371-0.016l-0.13-0.011v-4.287l0.152 0.010c0.11 0.007 0.225 0.011 0.349 0.011 0.534-0.002 1.065-0.070 1.582-0.203 0.178-0.047 0.354-0.1 0.529-0.158z"></path>
<path fill="#afb1b8" d="M12.751 19.052c-0.027-0.028-0.060-0.051-0.097-0.065s-0.076-0.022-0.115-0.020c-0.042-0.001-0.084 0.007-0.122 0.023-0.036 0.014-0.068 0.036-0.095 0.063s-0.048 0.060-0.061 0.096c-0.015 0.038-0.022 0.078-0.022 0.118v0.714c-0.002 0.050 0.008 0.1 0.028 0.146 0.017 0.037 0.041 0.069 0.071 0.096 0.029 0.024 0.062 0.041 0.098 0.051 0.035 0.010 0.071 0.015 0.107 0.015 0.040 0 0.079-0.008 0.115-0.025 0.036-0.016 0.068-0.038 0.095-0.066s0.048-0.060 0.062-0.096c0.015-0.036 0.023-0.075 0.023-0.114v-0.080h-0.187v0.064c0.001 0.022-0.003 0.043-0.011 0.064-0.006 0.015-0.015 0.029-0.027 0.040-0.012 0.009-0.025 0.016-0.039 0.021-0.013 0.004-0.026 0.006-0.039 0.007-0.017 0.002-0.034-0.001-0.049-0.007s-0.029-0.017-0.039-0.031c-0.018-0.029-0.026-0.062-0.025-0.096v-0.666c-0.001-0.037 0.007-0.074 0.023-0.107 0.010-0.015 0.023-0.027 0.040-0.035s0.034-0.011 0.052-0.008c0.016-0.001 0.032 0.003 0.047 0.010s0.027 0.017 0.037 0.030c0.021 0.027 0.032 0.061 0.031 0.096v0.062h0.185v-0.073c0-0.043-0.007-0.085-0.023-0.125-0.014-0.037-0.035-0.072-0.062-0.101z"></path>
<path fill="#afb1b8" d="M13.86 19.044c-0.060-0.050-0.135-0.078-0.212-0.078-0.038 0-0.076 0.007-0.111 0.020s-0.070 0.033-0.099 0.058c-0.031 0.028-0.056 0.062-0.072 0.1-0.019 0.044-0.028 0.091-0.027 0.138v0.685c-0.001 0.048 0.008 0.096 0.027 0.14 0.017 0.037 0.042 0.070 0.072 0.096 0.029 0.026 0.062 0.047 0.099 0.060s0.073 0.020 0.111 0.020c0.038-0 0.076-0.007 0.111-0.020 0.037-0.014 0.071-0.034 0.101-0.060s0.054-0.059 0.070-0.096c0.019-0.044 0.028-0.092 0.027-0.14v-0.685c0.001-0.048-0.008-0.095-0.027-0.138-0.017-0.038-0.041-0.072-0.070-0.1zM13.772 19.967c0.002 0.018-0.001 0.037-0.007 0.054s-0.017 0.033-0.030 0.045c-0.025 0.021-0.056 0.032-0.088 0.032s-0.063-0.011-0.088-0.032c-0.013-0.013-0.023-0.028-0.030-0.045s-0.009-0.036-0.007-0.054v-0.685c-0.002-0.018 0.001-0.037 0.007-0.054s0.017-0.033 0.030-0.045c0.025-0.021 0.056-0.032 0.088-0.032s0.063 0.011 0.088 0.032c0.013 0.013 0.023 0.028 0.030 0.045s0.009 0.036 0.007 0.054v0.685z"></path>
<path fill="#afb1b8" d="M15.316 20.273v-1.297h-0.18l-0.236 0.686h-0.003l-0.238-0.686h-0.178v1.297h0.185v-0.789h0.003l0.181 0.558h0.092l0.183-0.558h0.003v0.789h0.185z"></path>
<path fill="#afb1b8" d="M16.369 19.067c-0.029-0.032-0.065-0.056-0.105-0.071-0.043-0.014-0.089-0.021-0.134-0.020h-0.275v1.297h0.185v-0.506h0.095c0.058 0.003 0.115-0.010 0.167-0.035 0.042-0.023 0.077-0.058 0.101-0.099 0.021-0.035 0.036-0.073 0.042-0.113 0.007-0.049 0.011-0.098 0.010-0.147 0.002-0.062-0.004-0.125-0.018-0.185-0.012-0.045-0.036-0.086-0.068-0.119zM16.273 19.462c-0.001 0.023-0.007 0.047-0.017 0.067-0.011 0.020-0.027 0.036-0.048 0.045-0.027 0.012-0.057 0.018-0.087 0.016h-0.084v-0.441h0.095c0.029-0.001 0.057 0.004 0.083 0.016 0.019 0.011 0.034 0.028 0.043 0.048 0.010 0.023 0.016 0.047 0.016 0.072 0 0.027 0 0.056 0 0.086s0.002 0.061 0 0.089h-0.002z"></path>
<path fill="#afb1b8" d="M17.244 18.976h-0.151l-0.286 1.297h0.185l0.054-0.279h0.252l0.054 0.279h0.185l-0.293-1.297zM17.073 19.818l0.091-0.47h0.003l0.090 0.47h-0.185z"></path>
<path fill="#afb1b8" d="M18.438 19.757h-0.003l-0.279-0.781h-0.178v1.297h0.185v-0.78h0.004l0.282 0.78h0.174v-1.297h-0.185v0.781z"></path>
<path fill="#afb1b8" d="M19.567 18.976l-0.149 0.516h-0.004l-0.149-0.516h-0.196l0.254 0.749v0.548h0.185v-0.548l0.254-0.749h-0.196z"></path>
<path fill="#afb1b8" d="M12.235 20.639h0.089v0.25h0.060v-0.25h0.089v-0.051h-0.238v0.051z"></path>
<path fill="#afb1b8" d="M12.984 20.588l-0.117 0.301h0.064l0.025-0.068h0.12l0.026 0.068h0.066l-0.12-0.301h-0.064zM12.974 20.77l0.041-0.112 0.041 0.112h-0.082z"></path>
<path fill="#afb1b8" d="M13.724 20.778h0.070v0.039c-0.020 0.016-0.045 0.025-0.071 0.025-0.012 0.001-0.024-0.002-0.035-0.007s-0.021-0.013-0.028-0.022c-0.016-0.023-0.024-0.051-0.022-0.078 0-0.067 0.029-0.101 0.087-0.101 0.015-0.002 0.030 0.003 0.043 0.011s0.021 0.022 0.025 0.037l0.060-0.011c-0.013-0.059-0.055-0.089-0.128-0.089-0.039-0.001-0.076 0.013-0.105 0.039-0.015 0.015-0.027 0.033-0.034 0.053s-0.011 0.041-0.009 0.063c-0.002 0.041 0.012 0.082 0.039 0.113 0.015 0.015 0.033 0.027 0.052 0.035s0.041 0.011 0.062 0.009c0.047 0.001 0.093-0.016 0.128-0.048v-0.119h-0.13v0.051z"></path>
<path fill="#afb1b8" d="M14.48 20.588h-0.061v0.301h0.211v-0.051h-0.15v-0.25z"></path>
<path fill="#afb1b8" d="M15.119 20.588h-0.061v0.301h0.061v-0.301z"></path>
<path fill="#afb1b8" d="M15.743 20.789l-0.123-0.201h-0.059v0.301h0.057v-0.197l0.121 0.197h0.060v-0.301h-0.056v0.201z"></path>
<path fill="#afb1b8" d="M16.308 20.756h0.15v-0.051h-0.15v-0.066h0.161v-0.051h-0.222v0.301h0.229v-0.051h-0.168v-0.081z"></path>
<path fill="#afb1b8" d="M17.678 20.706h-0.119v-0.119h-0.060v0.301h0.060v-0.132h0.119v0.132h0.060v-0.301h-0.060v0.119z"></path>
<path fill="#afb1b8" d="M18.246 20.756h0.15v-0.051h-0.15v-0.066h0.162v-0.051h-0.222v0.301h0.228v-0.051h-0.168v-0.081z"></path>
<path fill="#afb1b8" d="M19.016 20.756c0.053-0.008 0.079-0.036 0.079-0.084 0.002-0.013-0-0.026-0.006-0.038s-0.013-0.022-0.024-0.029c-0.027-0.014-0.058-0.020-0.088-0.018h-0.128v0.301h0.061v-0.126h0.012c0.013-0.001 0.026 0.002 0.038 0.007 0.009 0.005 0.016 0.013 0.021 0.022l0.066 0.096h0.072l-0.037-0.059c-0.016-0.029-0.039-0.054-0.067-0.072zM18.955 20.715h-0.045v-0.076h0.048c0.021-0.002 0.042 0.001 0.061 0.007 0.004 0.004 0.008 0.009 0.010 0.014s0.003 0.011 0.003 0.017c-0 0.006-0.002 0.012-0.005 0.017s-0.007 0.010-0.011 0.013c-0.020 0.006-0.041 0.009-0.062 0.007z"></path>
<path fill="#afb1b8" d="M19.597 20.756h0.15v-0.051h-0.15v-0.066h0.162v-0.051h-0.223v0.301h0.229v-0.051h-0.168v-0.081z"></path>
</svg>
