<!-- Generated by IcoMoon.io -->
<svg version="1.1" xmlns="http://www.w3.org/2000/svg" width="32" height="32" viewBox="0 0 32 32">
<title>Client1</title>
<path fill="#afb1b8" d="M12.988 11.294l1.376 1.302h3.837v3.633l1.376 1.302v-6.237h-6.588z"></path>
<path fill="#afb1b8" d="M11.859 12.541v6.059h6.4v-2.408l-3.854-3.649-2.546-0.002zM17.040 17.714h-4.168v-4.075h0.295v3.799h3.873v0.276z"></path>
<path fill="#afb1b8" d="M13.702 19.724l0.154-0.317h0.129l-0.224 0.423v0.246h-0.117v-0.246l-0.225-0.423h0.129l0.154 0.317zM14.363 19.92h-0.259l-0.054 0.156h-0.121l0.253-0.669h0.104l0.253 0.669h-0.121l-0.055-0.156zM14.136 19.826h0.194l-0.097-0.278-0.097 0.278zM14.821 19.895c0-0.031 0.008-0.059 0.025-0.085s0.050-0.057 0.1-0.092c-0.026-0.033-0.044-0.061-0.055-0.084s-0.015-0.045-0.015-0.067c0-0.052 0.016-0.094 0.048-0.124s0.075-0.046 0.129-0.046c0.049 0 0.089 0.014 0.12 0.043s0.047 0.064 0.047 0.106c0 0.028-0.007 0.054-0.021 0.077s-0.037 0.047-0.069 0.070l-0.046 0.033 0.129 0.153c0.019-0.037 0.028-0.078 0.028-0.123h0.097c0 0.082-0.019 0.15-0.058 0.203l0.098 0.116h-0.13l-0.038-0.045c-0.048 0.036-0.105 0.054-0.171 0.054s-0.119-0.017-0.159-0.052c-0.040-0.035-0.059-0.081-0.059-0.137zM15.042 19.996c0.038 0 0.073-0.013 0.106-0.038l-0.146-0.172-0.014 0.010c-0.037 0.028-0.055 0.060-0.055 0.096 0 0.031 0.010 0.056 0.030 0.075s0.047 0.029 0.080 0.029zM14.981 19.565c0 0.026 0.016 0.058 0.047 0.097l0.051-0.035 0.014-0.012c0.019-0.017 0.028-0.038 0.028-0.065 0-0.017-0.007-0.032-0.020-0.045s-0.030-0.019-0.050-0.019c-0.022 0-0.039 0.007-0.052 0.022s-0.019 0.033-0.019 0.056zM16.196 19.858c-0.007 0.071-0.033 0.127-0.079 0.167s-0.107 0.060-0.183 0.060c-0.053 0-0.1-0.013-0.141-0.038s-0.072-0.061-0.094-0.108-0.034-0.101-0.034-0.162v-0.063c0-0.063 0.011-0.119 0.034-0.167s0.054-0.085 0.096-0.111c0.042-0.026 0.090-0.039 0.145-0.039 0.074 0 0.133 0.020 0.178 0.060s0.071 0.097 0.079 0.17h-0.116c-0.006-0.048-0.020-0.083-0.042-0.104s-0.055-0.032-0.099-0.032c-0.051 0-0.089 0.019-0.117 0.056s-0.041 0.091-0.041 0.162v0.059c0 0.072 0.013 0.127 0.039 0.165s0.064 0.057 0.114 0.057c0.046 0 0.080-0.010 0.103-0.031s0.038-0.055 0.044-0.102h0.116zM16.835 19.759c0 0.066-0.011 0.123-0.034 0.173s-0.055 0.087-0.097 0.114c-0.042 0.026-0.090 0.040-0.145 0.040s-0.103-0.013-0.145-0.040c-0.042-0.027-0.075-0.064-0.098-0.114s-0.035-0.106-0.035-0.17v-0.038c0-0.065 0.011-0.123 0.034-0.173s0.056-0.088 0.098-0.114c0.042-0.027 0.091-0.040 0.145-0.040s0.103 0.013 0.145 0.040c0.042 0.026 0.075 0.064 0.098 0.113s0.035 0.106 0.035 0.171v0.037zM16.718 19.724c0-0.074-0.014-0.131-0.042-0.171s-0.068-0.059-0.119-0.059c-0.050 0-0.090 0.020-0.118 0.059s-0.043 0.095-0.043 0.167v0.039c0 0.074 0.014 0.13 0.043 0.171s0.069 0.060 0.119 0.060c0.051 0 0.091-0.020 0.119-0.059s0.042-0.096 0.042-0.172v-0.035z"></path>
</svg>
