<!-- Generated by IcoMoon.io -->
<svg version="1.1" xmlns="http://www.w3.org/2000/svg" width="32" height="32" viewBox="0 0 32 32">
<title>Client5</title>
<path fill="#afb1b8" d="M11.386 19.064c0.043 0.054 0.066 0.121 0.065 0.19 0.002 0.045-0.006 0.090-0.023 0.132s-0.044 0.079-0.078 0.109c-0.084 0.064-0.188 0.095-0.293 0.088h-0.516v-1.206h0.505c0.1-0.007 0.199 0.022 0.28 0.080 0.033 0.027 0.058 0.062 0.075 0.101s0.025 0.082 0.023 0.124c0.003 0.067-0.018 0.132-0.059 0.184-0.039 0.048-0.093 0.081-0.154 0.094 0.068 0.013 0.13 0.049 0.174 0.103zM10.781 18.882h0.216c0.049 0.004 0.098-0.011 0.137-0.040 0.016-0.015 0.029-0.033 0.037-0.053s0.011-0.042 0.009-0.064c0.002-0.022-0.002-0.044-0.010-0.064s-0.020-0.039-0.036-0.054c-0.041-0.030-0.091-0.045-0.141-0.041h-0.212v0.316zM11.155 19.344c0.017-0.015 0.031-0.034 0.040-0.055s0.013-0.044 0.011-0.067c0.001-0.023-0.003-0.047-0.012-0.068s-0.023-0.041-0.040-0.056c-0.042-0.031-0.094-0.047-0.147-0.044h-0.226v0.332h0.229c0.052 0.003 0.103-0.012 0.145-0.042z"></path>
<path fill="#afb1b8" d="M12.418 19.582l-0.281-0.471h-0.106v0.471h-0.242v-1.206h0.458c0.115-0.008 0.229 0.029 0.319 0.102 0.064 0.065 0.103 0.152 0.109 0.243s-0.020 0.182-0.075 0.256c-0.056 0.065-0.134 0.108-0.218 0.122l0.299 0.482h-0.263zM12.032 18.947h0.198c0.137 0 0.206-0.061 0.206-0.183 0.001-0.025-0.002-0.050-0.011-0.073s-0.022-0.045-0.039-0.062c-0.043-0.036-0.099-0.054-0.155-0.049h-0.2l0.002 0.367z"></path>
<path fill="#afb1b8" d="M13.739 19.34h-0.482l-0.085 0.243h-0.253l0.442-1.192h0.274l0.441 1.192h-0.253l-0.083-0.243zM13.675 19.157l-0.176-0.509-0.176 0.509h0.352z"></path>
<path fill="#afb1b8" d="M15.393 19.582h-0.24l-0.538-0.82v0.82h-0.239v-1.206h0.239l0.538 0.825v-0.825h0.24v1.206z"></path>
<path fill="#afb1b8" d="M16.762 19.294c-0.050 0.091-0.125 0.165-0.217 0.213-0.104 0.053-0.22 0.079-0.337 0.076h-0.427v-1.206h0.427c0.117-0.003 0.233 0.022 0.337 0.074 0.092 0.046 0.168 0.12 0.217 0.21 0.049 0.098 0.075 0.206 0.075 0.316s-0.026 0.218-0.075 0.316zM16.488 19.265c0.068-0.080 0.106-0.182 0.106-0.288s-0.038-0.208-0.106-0.288c-0.083-0.073-0.191-0.109-0.3-0.102h-0.167v0.78h0.167c0.11 0.007 0.218-0.030 0.3-0.102z"></path>
<path fill="#afb1b8" d="M13.89 11.671c0 0 3.097 1.174 3.031 2.872v2.873c0 0-3.094-1.174-3.030-2.873l-0.001-2.872z"></path>
<path fill="#afb1b8" d="M19.68 16.743c0.585-0.404 1.261-0.654 1.967-0.728v-0.899c-0.814 0.315-1.504 0.886-1.967 1.627z"></path>
<path fill="#afb1b8" d="M19.328 17.014c0.479-0.968 1.309-1.715 2.319-2.087v-2.591c0 0-4.41 1.672-4.317 4.091v4.090c0 0 0.197-0.075 0.506-0.215 0-0.131 0-0.263 0.014-0.395 0.091-1.123 0.623-2.164 1.478-2.893z"></path>
<path fill="#afb1b8" d="M18.909 18.534c0.023-0.284 0.075-0.564 0.154-0.838-0.533 0.63-0.855 1.412-0.922 2.235-0.006 0.078-0.010 0.155-0.012 0.236 0.25-0.121 0.542-0.272 0.848-0.449-0.078-0.39-0.101-0.788-0.069-1.184z"></path>
<path fill="#afb1b8" d="M19.084 18.549c-0.029 0.358-0.011 0.719 0.055 1.073 1.205-0.724 2.559-1.842 2.507-3.194v-0.118c-0.861 0.097-1.666 0.475-2.293 1.075-0.147 0.372-0.237 0.765-0.269 1.164z"></path>
</svg>
